PathFileType	4	(X/Y/Z)	pose_F01_0-92.trc
DataRate	CameraRate	NumFrames	NumMarkers	Units	OrigDataRate	OrigDataStartFrame	OrigNumFrames
30	30	7	21	m	30	13	92
Frame#	Time	CHip			RHip			RKnee			RAnkle			RBigToe			RSmallToe			RHeel			LHip			LKnee			LAnkle			LBigToe			LSmallToe			LHeel			Neck			Nose			RShoulder			RElbow			RWrist			LShoulder			LElbow			LWrist			
		X1	Y1	Z1	X2	Y2	Z2	X3	Y3	Z3	X4	Y4	Z4	X5	Y5	Z5	X6	Y6	Z6	X7	Y7	Z7	X8	Y8	Z8	X9	Y9	Z9	X10	Y10	Z10	X11	Y11	Z11	X12	Y12	Z12	X13	Y13	Z13	X14	Y14	Z14	X15	Y15	Z15	X16	Y16	Z16	X17	Y17	Z17	X18	Y18	Z18	X19	Y19	Z19	X20	Y20	Z20	X21	Y21	Z21	
13	0.43333333333333335	-0.1905410036041913	1.8330905999223936	-0.5212363868978649	-0.20431335606200363	1.8312387983250316	-0.4657151323834513	-0.22236704918623074	1.7185738626221017	-0.4501412719563658													-0.17480652226084442	1.835613672894922	-0.5819410571921892	-0.24293848647243163	1.7066274937574193	-0.5949339082055827	-0.22993778406864002	1.5400352031156688	-0.5880180059675986	-0.27301467156932785	1.4989559505789476	-0.6131756356213959	-0.25865647003356124	1.5076851013958221	-0.6281211529915793	-0.2195549629784564	1.529324024826064	-0.579827094537091	-0.24244371037357518	1.989458814098797	-0.5529744273507594	-0.30500453926026944	2.026806259770527	-0.5847876397747772	-0.255023813823981	1.9852529549059101	-0.47141518452825776	-0.27513297015799487	1.89872180022331	-0.45715368324632416	-1.5110432847355268	1.8607080143790262	0.710216741999042	-0.22773036227874793	1.990227508515213	-0.6335788890811916	-1.2937901684368291	1.8708146010210114	0.4220763831898364	-1.1639690394426208	1.8242951527349527	0.23713935870357136
14	0.4666666666666667	-0.1905410036041913	1.8330905999223936	-0.5212363868978649	-0.20431335606200363	1.8312387983250316	-0.4657151323834513	-0.22236704918623074	1.7185738626221017	-0.4501412719563658													-0.17480652226084442	1.835613672894922	-0.5819410571921892	-0.24293848647243163	1.7066274937574193	-0.5949339082055827	-0.22993778406864002	1.5400352031156688	-0.5880180059675986	-0.27301467156932785	1.4989559505789476	-0.6131756356213959	-0.25865647003356124	1.5076851013958221	-0.6281211529915793	-0.2195549629784564	1.529324024826064	-0.579827094537091	-0.24244371037357518	1.989458814098797	-0.5529744273507594	-0.30500453926026944	2.026806259770527	-0.5847876397747772	-0.255023813823981	1.9852529549059101	-0.47141518452825776	-0.27513297015799487	1.89872180022331	-0.45715368324632416	-1.5110432847355268	1.8607080143790262	0.710216741999042	-0.22773036227874793	1.990227508515213	-0.6335788890811916	-1.2701007160318594	1.87308718257652	0.3800845855672892	-1.1133951461635991	1.8217100995543856	0.15726872671395573
15	0.5	-0.1905410036041913	1.8330905999223936	-0.5212363868978649	-0.20431335606200363	1.8312387983250316	-0.4657151323834513	-0.22236704918623074	1.7185738626221017	-0.4501412719563658													-0.17480652226084442	1.835613672894922	-0.5819410571921892	-0.24293848647243163	1.7066274937574193	-0.5949339082055827	-0.22993778406864002	1.5400352031156688	-0.5880180059675986	-0.27301467156932785	1.4989559505789476	-0.6131756356213959	-0.25865647003356124	1.5076851013958221	-0.6281211529915793	-0.2195549629784564	1.529324024826064	-0.579827094537091	-0.24244371037357518	1.989458814098797	-0.5529744273507594	-0.30500453926026944	2.026806259770527	-0.5847876397747772	-0.255023813823981	1.9852529549059101	-0.47141518452825776	-0.27513297015799487	1.89872180022331	-0.45715368324632416	-1.5110432847355268	1.8607080143790262	0.710216741999042	-0.22773036227874793	1.990227508515213	-0.6335788890811916	-1.2580661904614674	1.8720217862243897	0.35706730923950775	-1.0443525417244246	1.8200236558908678	0.03848687490354266
16	0.5333333333333333	-0.1905410036041913	1.8330905999223936	-0.5212363868978649	-0.20431335606200363	1.8312387983250316	-0.4657151323834513	-0.22236704918623074	1.7185738626221017	-0.4501412719563658													-0.17480652226084442	1.835613672894922	-0.5819410571921892	-0.24293848647243163	1.7066274937574193	-0.5949339082055827	-0.22993778406864002	1.5400352031156688	-0.5880180059675986	-0.27301467156932785	1.4989559505789476	-0.6131756356213959	-0.25865647003356124	1.5076851013958221	-0.6281211529915793	-0.2195549629784564	1.529324024826064	-0.579827094537091	-0.24244371037357518	1.989458814098797	-0.5529744273507594	-0.30500453926026944	2.026806259770527	-0.5847876397747772	-0.255023813823981	1.9852529549059101	-0.47141518452825776	-0.27513297015799487	1.89872180022331	-0.45715368324632416	-1.5110432847355268	1.8607080143790262	0.710216741999042	-0.22773036227874793	1.990227508515213	-0.6335788890811916	-1.2230407963357692	1.8651713469483795	0.2949448483886694	-1.0110894700439301	1.8141997963876564	-0.018598022250185954
17	0.5666666666666667	-0.1905410036041913	1.8330905999223936	-0.5212363868978649	-0.20431335606200363	1.8312387983250316	-0.4657151323834513	-0.22236704918623074	1.7185738626221017	-0.4501412719563658													-0.17480652226084442	1.835613672894922	-0.5819410571921892	-0.24293848647243163	1.7066274937574193	-0.5949339082055827	-0.22993778406864002	1.5400352031156688	-0.5880180059675986	-0.27301467156932785	1.4989559505789476	-0.6131756356213959	-0.25865647003356124	1.5076851013958221	-0.6281211529915793	-0.2195549629784564	1.529324024826064	-0.579827094537091	-0.24244371037357518	1.989458814098797	-0.5529744273507594	-0.30500453926026944	2.026806259770527	-0.5847876397747772	-0.255023813823981	1.9852529549059101	-0.47141518452825776	-0.27513297015799487	1.89872180022331	-0.45715368324632416	-1.5110432847355268	1.8607080143790262	0.710216741999042	-0.22773036227874793	1.990227508515213	-0.6335788890811916	-1.2063293252507548	1.8523734884338332	0.2701430871734523	-0.9900053576897948	1.8064737130269493	-0.05228780004018228
18	0.6	-0.1905410036041913	1.8330905999223936	-0.5212363868978649	-0.20431335606200363	1.8312387983250316	-0.4657151323834513	-0.22236704918623074	1.7185738626221017	-0.4501412719563658													-0.17480652226084442	1.835613672894922	-0.5819410571921892	-0.24293848647243163	1.7066274937574193	-0.5949339082055827	-0.22993778406864002	1.5400352031156688	-0.5880180059675986	-0.27301467156932785	1.4989559505789476	-0.6131756356213959	-0.25865647003356124	1.5076851013958221	-0.6281211529915793	-0.2195549629784564	1.529324024826064	-0.579827094537091	-0.24244371037357518	1.989458814098797	-0.5529744273507594	-0.30500453926026944	2.026806259770527	-0.5847876397747772	-0.255023813823981	1.9852529549059101	-0.47141518452825776	-0.27513297015799487	1.89872180022331	-0.45715368324632416	-1.5110432847355268	1.8607080143790262	0.710216741999042	-0.22773036227874793	1.990227508515213	-0.6335788890811916	-1.1910513598820007	1.8393854356332593	0.24483610934582486	-0.962321410605394	1.7952235095859876	-0.09770935753129496
19	0.6333333333333333	-0.1905410036041913	1.8330905999223936	-0.5212363868978649	-0.20431335606200363	1.8312387983250316	-0.4657151323834513	-0.22236704918623074	1.7185738626221017	-0.4501412719563658													-0.17480652226084442	1.835613672894922	-0.5819410571921892	-0.24293848647243163	1.7066274937574193	-0.5949339082055827	-0.22993778406864002	1.5400352031156688	-0.5880180059675986	-0.27301467156932785	1.4989559505789476	-0.6131756356213959	-0.25865647003356124	1.5076851013958221	-0.6281211529915793	-0.2195549629784564	1.529324024826064	-0.579827094537091	-0.24244371037357518	1.989458814098797	-0.5529744273507594	-0.30500453926026944	2.026806259770527	-0.5847876397747772	-0.255023813823981	1.9852529549059101	-0.47141518452825776	-0.27513297015799487	1.89872180022331	-0.45715368324632416	-1.5437100577234224	1.867779993806366	0.7688634125022634	-0.22773036227874793	1.990227508515213	-0.6335788890811916	-1.2023141150088696	1.8351592537093189	0.26028898877920376	-0.9704922295787088	1.7929476129081747	-0.09085718744031329
